<?xml version="1.0" standalone="no"?><!DOCTYPE svg PUBLIC "-//W3C//DTD SVG 1.1//EN" "http://www.w3.org/Graphics/SVG/1.1/DTD/svg11.dtd"><svg t="1634652576716" class="icon" viewBox="0 0 2701 1024" version="1.1" xmlns="http://www.w3.org/2000/svg" p-id="2334" xmlns:xlink="http://www.w3.org/1999/xlink" width="527.5390625" height="200"><defs><style type="text/css"></style></defs><path d="M2482.055381 153.366393h-230.324835l-56.590328 246.509229h208.855742l-27.304282 117.474473h-208.855742l-5.394798 27.194185-37.323193 184.193809-0.220195 1.211077-23.340758 116.153299h234.178262l-19.597429 119.456236h-491.697281v-0.330294l77.288735-348.569994L2031.314523 31.267807h478.04514l-27.304282 122.098586z m-673.138643 1.981763l-79.600791 374.883395-92.151954 435.32715h-241.995214l113.951341-545.975553 55.819642-268.198517H1428.308251l29.286045-120.116824h519.001564l-23.340757 124.080349h-144.338365zM1229.361322 965.558701H979.549156l0.55049-16.955079 7.37656-227.682485H861.854487L772.785275 965.558701H534.753586L890.70014 109.21713 922.958829 31.267807h306.402493V965.558701zM911.28845 581.867472h85.876372l13.652142-252.454515-99.528514 252.454515zM468.364544 148.742281l-10.01891 9.908812-54.278271 241.224529h200.928692L575.71001 525.167047H374.12073l-95.014499 440.391654H41.074542l109.76762-505.679717 93.142835-428.611177H707.056821l-24.992227 117.474474H468.364544z" p-id="2335" fill="#515151"></path></svg>